<svg xmlns="http://www.w3.org/2000/svg" viewBox="0 0 128 128" width="128" height="128">
  <!-- Background with gradient -->
  <defs>
    <linearGradient id="bgGradient" x1="0%" y1="0%" x2="100%" y2="100%">
      <stop offset="0%" style="stop-color:#6366f1;stop-opacity:1" />
      <stop offset="100%" style="stop-color:#8b5cf6;stop-opacity:1" />
    </linearGradient>
    <linearGradient id="glassGradient" x1="0%" y1="0%" x2="100%" y2="100%">
      <stop offset="0%" style="stop-color:rgba(255,255,255,0.3);stop-opacity:1" />
      <stop offset="100%" style="stop-color:rgba(255,255,255,0.1);stop-opacity:1" />
    </linearGradient>
  </defs>
  
  <!-- Rounded rectangle background -->
  <rect width="128" height="128" rx="24" fill="url(#bgGradient)"/>
  
  <!-- Glass effect overlay -->
  <rect width="128" height="128" rx="24" fill="url(#glassGradient)"/>
  
  <!-- Tab/Window icon -->
  <g transform="translate(20, 20)">
    <!-- Tab shape -->
    <path d="M 8 8 L 48 8 L 48 16 L 68 16 L 68 72 L 8 72 Z" 
          fill="rgba(255,255,255,0.9)" 
          stroke="rgba(255,255,255,0.3)" 
          stroke-width="2"/>
    
    <!-- Inner window grid -->
    <rect x="12" y="20" width="52" height="4" rx="1" fill="rgba(255,255,255,0.6)"/>
    <rect x="12" y="28" width="40" height="4" rx="1" fill="rgba(255,255,255,0.4)"/>
    <rect x="12" y="36" width="48" height="4" rx="1" fill="rgba(255,255,255,0.4)"/>
    
    <!-- Grid squares representing shortcuts -->
    <rect x="12" y="44" width="20" height="20" rx="2" fill="rgba(255,255,255,0.3)" stroke="rgba(255,255,255,0.5)" stroke-width="1"/>
    <rect x="36" y="44" width="20" height="20" rx="2" fill="rgba(255,255,255,0.3)" stroke="rgba(255,255,255,0.5)" stroke-width="1"/>
    <rect x="12" y="68" width="20" height="20" rx="2" fill="rgba(255,255,255,0.3)" stroke="rgba(255,255,255,0.5)" stroke-width="1"/>
    <rect x="36" y="68" width="20" height="20" rx="2" fill="rgba(255,255,255,0.3)" stroke="rgba(255,255,255,0.5)" stroke-width="1"/>
  </g>
  
  <!-- W letter overlay -->
  <text x="64" y="90" 
        font-family="Arial, sans-serif" 
        font-size="32" 
        font-weight="bold" 
        fill="rgba(255,255,255,0.95)" 
        text-anchor="middle">W</text>
</svg>

